<?xml version="1.0" standalone="no"?>
<!DOCTYPE svg PUBLIC "-//W3C//DTD SVG 20010904//EN"
 "http://www.w3.org/TR/2001/REC-SVG-20010904/DTD/svg10.dtd">
<svg version="1.0" xmlns="http://www.w3.org/2000/svg"
 width="700.000000pt" height="700.000000pt" viewBox="0 0 700.000000 700.000000"
 preserveAspectRatio="xMidYMid meet">
<metadata>
Created by potrace 1.11, written by Peter Selinger 2001-2013
</metadata>
<g transform="translate(0.000000,700.000000) scale(0.100000,-0.100000)"
fill="#000000" stroke="none">
<path d="M1100 6253 c0 -120 21 -607 35 -838 56 -880 165 -1602 322 -2130 294
-993 992 -1909 1930 -2531 l125 -83 121 81 c281 188 492 362 743 613 395 395
670 777 905 1260 214 441 333 837 434 1445 90 547 157 1305 173 1958 l7 282
-2397 0 -2398 0 0 -57z m4706 -260 c-28 -1026 -160 -2070 -335 -2649 -212
-704 -590 -1342 -1108 -1874 -90 -92 -217 -214 -284 -271 -113 -98 -401 -320
-407 -315 -3 3 24 1286 33 1616 4 113 11 243 16 290 20 176 80 311 182 409
l45 43 47 -36 c35 -26 52 -33 64 -27 27 16 479 405 485 419 3 7 -4 33 -16 57
l-22 45 44 46 c73 75 309 284 452 399 169 137 175 152 47 119 -105 -27 -186
-5 -267 70 -27 25 -52 46 -55 46 -4 0 -37 -19 -74 -43 -135 -86 -405 -217
-447 -217 -14 0 -108 96 -144 147 -63 90 -118 234 -147 385 -21 114 -21 336 0
463 35 208 141 464 257 620 74 101 199 220 307 294 120 82 114 89 -57 73 -312
-29 -593 -112 -907 -267 -404 -199 -723 -464 -1014 -838 -222 -287 -420 -707
-507 -1077 -33 -136 -67 -381 -55 -393 5 -5 58 33 127 90 283 236 432 326 639
389 114 34 290 39 395 11 134 -36 255 -108 341 -204 80 -89 80 -90 15 -174
-108 -142 -193 -349 -215 -529 -12 -92 -2 -480 29 -1165 18 -387 40 -947 40
-1013 0 -20 -14 -12 -117 67 -212 161 -315 252 -514 450 -399 400 -680 790
-910 1266 -195 404 -308 782 -403 1350 -97 577 -146 1138 -181 2033 l-5 142
2316 0 2317 0 -7 -247z m-1123 -1853 c14 -13 1 -42 -84 -182 -113 -185 -113
-185 -104 -123 9 62 37 131 81 192 55 77 47 84 -61 58 -65 -15 -138 -18 -169
-6 -15 6 -6 11 41 24 169 48 271 60 296 37z m-1189 -711 c-24 -154 -28 -205
-16 -213 6 -4 37 6 69 22 123 61 219 73 298 37 l30 -13 -40 -1 c-70 -2 -162
-29 -255 -76 -101 -51 -132 -55 -154 -23 -32 46 -10 207 47 353 28 70 32 76
35 49 2 -16 -4 -77 -14 -135z m-57 -544 c65 -77 130 -156 145 -175 30 -40 61
-128 56 -160 -2 -18 -29 9 -140 142 -75 90 -146 181 -158 200 -21 36 -44 141
-30 136 5 -2 61 -66 127 -143z m160 -882 c13 -29 23 -65 21 -79 -3 -24 -13
-17 -123 97 -123 127 -162 184 -171 256 -5 38 -4 37 122 -92 88 -90 134 -146
151 -182z m-122 -553 c103 -120 138 -181 133 -230 -3 -28 -8 -24 -106 87 -115
130 -139 170 -148 240 -8 57 -16 64 121 -97z"/>
</g>
</svg>
